<svg aria-hidden="true" style="position:absolute;width:0;height:0;overflow:hidden" xmlns="http://www.w3.org/2000/svg">
  <defs>
    <symbol id="icon-ticket" viewBox="0 0 32 32">
      <path d="m18 10 4 4-8 8-4-4zm13.298-.703L29.001 7l-1 1a2.829 2.829 0 1 1-4-4.001l1-1L22.704.702a2.415 2.415 0 0 0-3.405 0L.704 19.297a2.415 2.415 0 0 0 0 3.405l2.297 2.297L4 24a2.828 2.828 0 1 1 4 3.999l-1 1 2.297 2.297a2.415 2.415 0 0 0 3.405 0l18.595-18.595a2.417 2.417 0 0 0 0-3.406zM14 26l-8-8L18 6l8 8-12 12z"/>
    </symbol>
    <symbol id="icon-equalizer" viewBox="0 0 32 32">
      <path d="M14 4v-.5c0-.825-.675-1.5-1.5-1.5h-5C6.675 2 6 2.675 6 3.5V4H0v4h6v.5c0 .825.675 1.5 1.5 1.5h5c.825 0 1.5-.675 1.5-1.5V8h18V4H14zM8 8V4h4v4H8zm18 5.5c0-.825-.675-1.5-1.5-1.5h-5c-.825 0-1.5.675-1.5 1.5v.5H0v4h18v.5c0 .825.675 1.5 1.5 1.5h5c.825 0 1.5-.675 1.5-1.5V18h6v-4h-6v-.5zM20 18v-4h4v4h-4zm-6 5.5c0-.825-.675-1.5-1.5-1.5h-5c-.825 0-1.5.675-1.5 1.5v.5H0v4h6v.5c0 .825.675 1.5 1.5 1.5h5c.825 0 1.5-.675 1.5-1.5V28h18v-4H14v-.5zM8 28v-4h4v4H8z"/>
    </symbol>
    <symbol id="icon-star-full" viewBox="0 0 32 32">
      <path d="m32 12.408-11.056-1.607L16 .783l-4.944 10.018L0 12.408l8 7.798-1.889 11.011L16 26.018l9.889 5.199L24 20.206l8-7.798z"/>
    </symbol>
    <symbol id="icon-question" viewBox="0 0 32 32">
      <path d="M14 22h4v4h-4zm8-14a2 2 0 0 1 2 2v6l-6 4h-4v-2l6-4v-2H10V8h12zm-6-5c-3.472 0-6.737 1.352-9.192 3.808S3 12.528 3 16c0 3.472 1.352 6.737 3.808 9.192S12.528 29 16 29c3.472 0 6.737-1.352 9.192-3.808S29 19.472 29 16c0-3.472-1.352-6.737-3.808-9.192S19.472 3 16 3zm0-3c8.837 0 16 7.163 16 16s-7.163 16-16 16S0 24.837 0 16 7.163 0 16 0z"/>
    </symbol>
    <symbol id="icon-enter" viewBox="0 0 32 32">
      <path d="M12 16H2v-4h10V8l6 6-6 6zM32 0v26l-12 6v-6H8v-8h2v6h10V6l8-4H10v8H8V0z"/>
    </symbol>
    <symbol id="icon-credit-card" viewBox="0 0 32 32">
      <path d="M29 4h-26c-1.65 0-3 1.35-3 3v18c0 1.65 1.35 3 3 3h26c1.65 0 3-1.35 3-3v-18c0-1.65-1.35-3-3-3zM3 6h26c0.542 0 1 0.458 1 1v3h-28v-3c0-0.542 0.458-1 1-1zM29 26h-26c-0.542 0-1-0.458-1-1v-9h28v9c0 0.542-0.458 1-1 1zM4 20h2v4h-2zM8 20h2v4h-2zM12 20h2v4h-2z"></path>
    </symbol>
  </defs>
</svg>
