<svg aria-hidden="true" style="position:absolute;width:0;height:0;overflow:hidden" xmlns="http://www.w3.org/2000/svg">
  <defs>
    <symbol id="icon-ticket" viewBox="0 0 32 32">
      <path d="m18 10 4 4-8 8-4-4zm13.298-.703L29.001 7l-1 1a2.829 2.829 0 1 1-4-4.001l1-1L22.704.702a2.415 2.415 0 0 0-3.405 0L.704 19.297a2.415 2.415 0 0 0 0 3.405l2.297 2.297L4 24a2.828 2.828 0 1 1 4 3.999l-1 1 2.297 2.297a2.415 2.415 0 0 0 3.405 0l18.595-18.595a2.417 2.417 0 0 0 0-3.406zM14 26l-8-8L18 6l8 8-12 12z"/>
    </symbol>
    <symbol id="icon-equalizer" viewBox="0 0 32 32">
      <path d="M14 4v-.5c0-.825-.675-1.5-1.5-1.5h-5C6.675 2 6 2.675 6 3.5V4H0v4h6v.5c0 .825.675 1.5 1.5 1.5h5c.825 0 1.5-.675 1.5-1.5V8h18V4H14zM8 8V4h4v4H8zm18 5.5c0-.825-.675-1.5-1.5-1.5h-5c-.825 0-1.5.675-1.5 1.5v.5H0v4h18v.5c0 .825.675 1.5 1.5 1.5h5c.825 0 1.5-.675 1.5-1.5V18h6v-4h-6v-.5zM20 18v-4h4v4h-4zm-6 5.5c0-.825-.675-1.5-1.5-1.5h-5c-.825 0-1.5.675-1.5 1.5v.5H0v4h6v.5c0 .825.675 1.5 1.5 1.5h5c.825 0 1.5-.675 1.5-1.5V28h18v-4H14v-.5zM8 28v-4h4v4H8z"/>
    </symbol>
    <symbol id="icon-star-full" viewBox="0 0 32 32">
      <path d="m32 12.408-11.056-1.607L16 .783l-4.944 10.018L0 12.408l8 7.798-1.889 11.011L16 26.018l9.889 5.199L24 20.206l8-7.798z"/>
    </symbol>
    <symbol id="icon-question" viewBox="0 0 32 32">
      <path d="M14 22h4v4h-4zm8-14a2 2 0 0 1 2 2v6l-6 4h-4v-2l6-4v-2H10V8h12zm-6-5c-3.472 0-6.737 1.352-9.192 3.808S3 12.528 3 16c0 3.472 1.352 6.737 3.808 9.192S12.528 29 16 29c3.472 0 6.737-1.352 9.192-3.808S29 19.472 29 16c0-3.472-1.352-6.737-3.808-9.192S19.472 3 16 3zm0-3c8.837 0 16 7.163 16 16s-7.163 16-16 16S0 24.837 0 16 7.163 0 16 0z"/>
    </symbol>
    <symbol id="icon-enter" viewBox="0 0 32 32">
      <path d="M12 16H2v-4h10V8l6 6-6 6zM32 0v26l-12 6v-6H8v-8h2v6h10V6l8-4H10v8H8V0z"/>
    </symbol>
    <symbol id="icon-credit-card" viewBox="0 0 32 32">
      <path d="M29 4h-26c-1.65 0-3 1.35-3 3v18c0 1.65 1.35 3 3 3h26c1.65 0 3-1.35 3-3v-18c0-1.65-1.35-3-3-3zM3 6h26c0.542 0 1 0.458 1 1v3h-28v-3c0-0.542 0.458-1 1-1zM29 26h-26c-0.542 0-1-0.458-1-1v-9h28v9c0 0.542-0.458 1-1 1zM4 20h2v4h-2zM8 20h2v4h-2zM12 20h2v4h-2z"></path>
    </symbol>
    <symbol id="icon-cross" viewBox="0 0 32 32">
      <path d="M32 3.223l-3.223-3.223-12.777 12.777-12.777-12.777-3.223 3.223 12.777 12.777-12.777 12.777 3.223 3.223 12.777-12.777 12.777 12.777 3.223-3.223-12.777-12.777 12.777-12.777z"></path>
    </symbol>
    <symbol id="icon-shield" viewBox="0 0 20 28">
      <path d="M17 15V5h-7v17.766c.797-.422 2.078-1.156 3.328-2.141C15 19.312 17 17.266 17 15zm3-12v12c0 6.578-9.203 10.734-9.594 10.906-.125.063-.266.094-.406.094s-.281-.031-.406-.094C9.203 25.734 0 21.578 0 15V3c0-.547.453-1 1-1h18c.547 0 1 .453 1 1z"/>
    </symbol>
    <symbol id="icon-wallet" viewBox="0 0 38 32">
      <path d="M32.509 7.5a.5.5 0 0 0 .5-.5V5.335a1.64 1.64 0 0 0-1.638-1.638h-2.687l-.613-1.809a.5.5 0 0 0-.619-.318L12.899 5.994a.501.501 0 0 0 .292.957L27.28 2.667l1.343 3.965a.499.499 0 1 0 .947-.321l-.547-1.615h2.349c.352 0 .638.286.638.638V7c-.001.276.223.5.499.5zM36.5 15a.5.5 0 0 0 0 1c.351 0 .5.149.5.5v6c0 .351-.149.5-.5.5h-8c-.351 0-.5-.149-.5-.5v-5c0-.351.149-.5.5-.5h6a.5.5 0 0 0 .5-.5v-6c0-.911-.589-1.5-1.5-1.5H3c-1.233 0-2-.767-2-2s.767-2 2-2h5.076l-3.026.998a.5.5 0 1 0 .313.949L23.482.974a.5.5 0 1 0-.314-.95l-12.1 3.99C11.045 4.01 11.024 4 11 4H3C1.206 4 0 5.206 0 7v22c0 1.794 1.206 3 3 3h30.5c.911 0 1.5-.589 1.5-1.5v-5a.5.5 0 0 0-1 0v5c0 .351-.149.5-.5.5H3c-1.233 0-2-.767-2-2V9.312c.513.433 1.192.688 2 .688h30.5c.351 0 .5.149.5.5V16h-5.5c-.911 0-1.5.589-1.5 1.5v5c0 .911.589 1.5 1.5 1.5h8c.911 0 1.5-.589 1.5-1.5v-6c0-.911-.589-1.5-1.5-1.5zM31 20a1 1 0 1 0 2 0 1 1 0 0 0-2 0z"/>
    </symbol>
    <symbol id="icon-moneybag" viewBox="0 0 32 32">
      <path d="M14.017 9.302h3.934V7.826h-3.934v1.476zm3.905.491h-3.905s-6.425 6.333-6.425 12.542c0 6.579 6.732 7.102 6.732 7.102s2.008.333 3.257 0c0 0 6.826-.8 6.826-7.07.001-6.272-6.485-12.574-6.485-12.574zm.289 13.33c-.158.32-.371.588-.643.802a2.801 2.801 0 0 1-.949.484c-.046.014-.096.019-.143.031v1.092h-.983v-.964l-.036.003a4.223 4.223 0 0 1-1.412-.231c-.184-.064-.337-.131-.459-.201s-.212-.132-.266-.186a.461.461 0 0 1-.116-.234 2.222 2.222 0 0 1-.034-.441c0-.129.004-.237.013-.325s.021-.158.041-.213a.233.233 0 0 1 .074-.116.186.186 0 0 1 .109-.034c.059 0 .141.034.247.103s.242.145.409.228c.167.084.365.159.597.229.231.068.499.103.803.103.2 0 .379-.024.537-.072s.293-.115.403-.203a.856.856 0 0 0 .253-.325c.059-.13.088-.273.088-.433a.765.765 0 0 0-.15-.472 1.517 1.517 0 0 0-.391-.35c-.16-.102-.342-.197-.546-.287s-.415-.185-.631-.284a5.57 5.57 0 0 1-.631-.341c-.204-.127-.387-.278-.547-.455s-.29-.387-.391-.628a2.264 2.264 0 0 1-.149-.868c0-.388.072-.728.215-1.021s.338-.537.581-.73a2.49 2.49 0 0 1 .862-.434c.17-.049.346-.085.526-.108v-1.035h.983v1.034c.04.005.079.003.118.009.191.029.371.068.537.118s.314.105.443.167.215.113.256.155c.043.041.07.076.086.105a.638.638 0 0 1 .037.116c.01.048.018.108.021.182a5.057 5.057 0 0 1-.004.579 1.087 1.087 0 0 1-.031.206c-.014.055-.035.094-.062.119s-.062.037-.109.037a.523.523 0 0 1-.219-.086 4.651 4.651 0 0 0-.367-.189 3.687 3.687 0 0 0-.506-.187 2.256 2.256 0 0 0-.631-.083c-.18 0-.336.021-.469.065a.974.974 0 0 0-.335.18.717.717 0 0 0-.199.277.893.893 0 0 0-.065.342c0 .18.049.335.146.466s.229.248.394.35c.164.103.351.198.56.287.208.09.42.185.637.284.217.101.428.214.637.341s.395.279.557.456.293.385.393.624c.1.24.15.521.15.847a2.51 2.51 0 0 1-.239 1.115zm-.32-15.789 1.998-4.919s-1.26 1.046-1.998 1.046-1.907-1.015-1.907-1.015-1.26 1.015-1.998 1.015c-.737 0-1.937-.984-1.937-.984l2.029 4.857h3.813z"/>
    </symbol>
    <symbol id="icon-coins" viewBox="0 0 32 32">
      <path d="M28.5 23H16.254c.359-.619.634-1.29.816-2H28.5a1 1 0 1 1 0 2zm0-3H17.264c.041-.328.069-.661.069-1 0-.34-.028-.672-.069-1H28.5a1 1 0 1 1 0 2zm0-3H17.07a7.918 7.918 0 0 0-.816-2H28.5a1 1 0 1 1 0 2zm0-3H15.572a8.009 8.009 0 0 0-2.369-2H28.5a1 1 0 1 1 0 2zm0-3h-16a1 1 0 1 1 0-2h16a1 1 0 1 1 0 2zm0-3h-16a1 1 0 1 1 0-2h16a1 1 0 1 1 0 2zm-12 11a7 7 0 1 1-14.001-.001A7 7 0 0 1 16.5 19zm-4.522.761c-.101-.239-.231-.447-.394-.624s-.348-.329-.556-.456a6.41 6.41 0 0 0-.637-.341c-.217-.1-.429-.194-.637-.284-.208-.089-.395-.185-.559-.287s-.296-.219-.394-.35-.147-.286-.147-.466c0-.12.022-.234.065-.342a.72.72 0 0 1 .2-.277.969.969 0 0 1 .334-.18c.133-.044.29-.065.469-.065.229 0 .439.027.631.083.191.057.36.118.506.187.146.068.269.131.369.189s.173.086.219.086.082-.012.109-.037a.246.246 0 0 0 .062-.119c.015-.054.024-.123.031-.206a5.057 5.057 0 0 0 .003-.579 1.438 1.438 0 0 0-.021-.182.568.568 0 0 0-.037-.116c-.016-.029-.043-.064-.085-.105s-.127-.094-.256-.155a2.961 2.961 0 0 0-.443-.167 3.929 3.929 0 0 0-.537-.118c-.039-.006-.079-.004-.118-.009v-1.034h-.984v1.034c-.181.024-.356.06-.526.109-.331.096-.618.24-.862.434s-.438.438-.581.73a2.293 2.293 0 0 0-.215 1.021c0 .337.05.627.149.868s.23.451.391.628.342.328.546.455c.204.128.415.241.631.341s.427.194.631.284.386.186.546.287a1.5 1.5 0 0 1 .391.35c.1.132.15.289.15.472 0 .159-.029.303-.087.433s-.143.237-.253.325-.244.155-.402.203a1.854 1.854 0 0 1-.538.072c-.304 0-.572-.034-.803-.103s-.43-.145-.597-.229a3.95 3.95 0 0 1-.409-.228c-.106-.068-.188-.103-.247-.103a.181.181 0 0 0-.109.034.226.226 0 0 0-.075.116c-.019.055-.032.125-.041.213s-.013.196-.013.325c0 .192.012.339.034.441.023.103.062.181.116.234s.142.115.265.186.276.137.459.201a4.215 4.215 0 0 0 1.412.231l.036-.002v.963h.983V23.04c.047-.012.097-.018.143-.031.362-.108.679-.27.95-.484s.485-.481.644-.802a2.5 2.5 0 0 0 .236-1.118 2.183 2.183 0 0 0-.148-.844zM15.572 24H28.5a1 1 0 1 1 0 2H13.203a8.009 8.009 0 0 0 2.369-2z"/>
    </symbol>
    <symbol id="icon-dollar" viewBox="0 0 38 32">
      <path d="m36.002 23.01.057-17.089-31.05.019-.001-1.96H38v19.031l-1.998-.001zm-1.007 3.007-1.997-.002.057-17.089-31.05.02-.001-1.96h32.992v19.031zm-2.942 2.003H0V9.99h32.053v18.03zm-2.004-16.089H2.003v14.086h28.045V11.931zm-3.004 12.584c0 .177.044.342.101.5h-11.12c2.766 0 5.009-2.69 5.009-6.01s-2.243-6.01-5.009-6.01h11.119a1.466 1.466 0 0 0-.101.501c0 .83.672 1.502 1.502 1.502.178 0 .343-.044.501-.101v8.215a1.49 1.49 0 0 0-.501-.101 1.504 1.504 0 0 0-1.501 1.504zm-2.004-7.596c-.83 0-1.502.896-1.502 2.003s.672 2.003 1.502 2.003 1.502-.896 1.502-2.003-.672-2.003-1.502-2.003zm-6.918-1.525a.466.466 0 0 1 .037.116c.011.048.018.109.021.182.005.073.007.164.007.273 0 .121-.003.224-.009.307a1.394 1.394 0 0 1-.031.207.259.259 0 0 1-.062.119c-.027.025-.064.038-.11.038s-.118-.029-.219-.087c-.101-.059-.224-.121-.369-.189s-.315-.131-.507-.187-.402-.084-.632-.084c-.18 0-.336.021-.469.065-.134.044-.246.104-.335.181s-.157.17-.2.277a.903.903 0 0 0-.066.343c0 .18.049.335.147.467s.229.248.395.35c.165.103.352.198.56.288s.421.185.638.284c.217.101.43.214.639.342.209.127.395.279.557.456.163.178.295.386.395.626s.15.522.15.848c0 .425-.08.799-.238 1.119-.158.321-.373.59-.645.805s-.588.376-.951.484c-.046.014-.096.02-.143.031v1.094h-.985v-.965c-.013 0-.024.003-.037.003-.279 0-.539-.023-.779-.068s-.452-.101-.635-.164c-.184-.064-.337-.132-.46-.202s-.212-.132-.266-.186-.093-.132-.116-.234-.035-.25-.035-.442c0-.129.004-.238.013-.325a.923.923 0 0 1 .041-.214.239.239 0 0 1 .075-.116.186.186 0 0 1 .109-.034c.059 0 .141.034.248.104a3.758 3.758 0 0 0 1.008.456c.231.069.5.104.804.104.2 0 .38-.024.538-.072s.293-.116.404-.203c.11-.088.194-.197.253-.326s.088-.274.088-.433a.764.764 0 0 0-.15-.473c-.1-.132-.23-.248-.391-.351s-.343-.198-.547-.287c-.205-.09-.415-.185-.632-.285s-.428-.214-.632-.341a2.527 2.527 0 0 1-.547-.457 2.167 2.167 0 0 1-.391-.628c-.1-.242-.15-.532-.15-.87 0-.388.072-.729.216-1.022.144-.294.338-.538.582-.732s.532-.339.863-.435a3.62 3.62 0 0 1 .527-.109v-1.035h.985v1.035c.039.005.078.003.117.009.192.029.372.068.539.118.166.05.314.105.443.168s.215.113.258.155a.396.396 0 0 1 .082.102zm-7.105 3.611c0 3.319 2.242 6.01 5.008 6.01H4.907a1.49 1.49 0 0 0 .101-.5c0-.83-.673-1.503-1.502-1.503a1.49 1.49 0 0 0-.501.101v-8.215c.158.057.323.101.501.101.83 0 1.502-.672 1.502-1.502a1.49 1.49 0 0 0-.101-.501h11.119c-2.766-.001-5.008 2.69-5.008 6.009zm-4.007-2.086c-.83 0-1.502.896-1.502 2.003s.673 2.003 1.502 2.003c.83 0 1.502-.896 1.502-2.003s-.672-2.003-1.502-2.003z"/>
    </symbol>
    <symbol id="icon-credit-card" viewBox="0 0 32 32">
      <path d="M30 4H2a2 2 0 0 0-2 2v20a2 2 0 0 0 2 2h28a2 2 0 0 0 2-2V6a2 2 0 0 0-2-2zM3 6h26a1 1 0 0 1 1 1v3H2V7a1 1 0 0 1 1-1zm26 20H3a1 1 0 0 1-1-1v-9h28v9a1 1 0 0 1-1 1z"/>
    </symbol>
    <symbol id="icon-pencil" viewBox="0 0 32 32">
      <path d="M27 0a5 5 0 0 1 4 8l-2 2-7-7 2-2c.836-.628 1.874-1 3-1zM2 23l-2 9 9-2 18.5-18.5-7-7L2 23zm20.362-11.638-14 14-1.724-1.724 14-14 1.724 1.724z"/>
    </symbol>
    <symbol id="icon-library" viewBox="0 0 34 32">
      <path d="M32 30v-2h-2V16h2v-2h-6v2h2v12h-6V16h2v-2h-6v2h2v12h-6V16h2v-2h-6v2h2v12H6V16h2v-2H2v2h2v12H2v2H0v2h34v-2h-2zM16 0h2l16 10v2H0v-2L16 0z"/>
    </symbol>
    <symbol id="icon-lifebuoy" viewBox="0 0 32 32">
      <path d="M16 0C7.163 0 0 7.163 0 16s7.163 16 16 16 16-7.163 16-16S24.837 0 16 0zm-6 16a6 6 0 1 1 12 0 6 6 0 0 1-12 0zm18.937 5.359-5.544-2.297c.391-.943.608-1.977.608-3.062s-.216-2.119-.608-3.062l5.544-2.297C29.622 12.292 30 14.101 30 16s-.379 3.708-1.063 5.359zM21.359 3.063l-2.297 5.544C18.119 8.216 17.085 8 16 8s-2.119.216-3.062.607l-2.297-5.544C12.292 2.379 14.101 2 16 2s3.708.379 5.359 1.063zM3.063 10.641l5.544 2.297c-.391.943-.608 1.977-.608 3.062s.216 2.119.607 3.062l-5.544 2.297c-.685-1.651-1.063-3.46-1.063-5.359s.379-3.708 1.063-5.359zm7.578 18.296 2.297-5.544c.943.391 1.977.608 3.062.608s2.119-.216 3.062-.608l2.297 5.544C19.708 29.621 17.899 30 16 30s-3.708-.379-5.359-1.063z"/>
    </symbol>
    <symbol id="icon-cross" viewBox="0 0 32 32">
      <path d="M32 3.223l-3.223-3.223-12.777 12.777-12.777-12.777-3.223 3.223 12.777 12.777-12.777 12.777 3.223 3.223 12.777-12.777 12.777 12.777 3.223-3.223-12.777-12.777 12.777-12.777z"></path>
    </symbol>
    <symbol id="icon-one-finger-double-tap" viewBox="0 0 32 32">
      <path d="M18.808 11.253c0.751-1.060 1.192-2.355 1.192-3.753 0-3.59-2.91-6.5-6.5-6.5s-6.5 2.91-6.5 6.5c0 2.301 1.196 4.323 3 5.478v-1.235c-1.222-1.009-2-2.535-2-4.243 0-3.038 2.462-5.5 5.5-5.5s5.5 2.462 5.5 5.5c0 1.333-0.474 2.556-1.264 3.508 0.376 0.025 0.737 0.11 1.072 0.245v0 0zM17 10.329c0.625-0.773 1-1.757 1-2.829 0-2.485-2.015-4.5-4.5-4.5s-4.5 2.015-4.5 4.5c0 1.072 0.375 2.056 1 2.829v-2.837c0-1.93 1.567-3.491 3.5-3.491 1.929 0 3.5 1.563 3.5 3.491v2.837zM19.499 31c4.143 0 7.501-3.585 7.501-7.5 0 0 0 2.313 0 0v-5.998c0-0.829-0.666-1.502-1.5-1.502-0.828 0-1.5 0.671-1.5 1.502v0.498h-1v-2.494c0-0.832-0.666-1.506-1.5-1.506-0.828 0-1.5 0.672-1.5 1.506v1.494h-1v-2.494c0-0.832-0.666-1.506-1.5-1.506-0.828 0-1.5 0.672-1.5 1.506v3.494h-1v-10.495c0-0.831-0.666-1.505-1.5-1.505-0.828 0-1.5 0.667-1.5 1.505v11.295c-2.058-2.2-4.768-4.621-5.879-3.504-1.087 1.093 1.714 4.105 5.626 10.687 1.763 2.966 3.993 5.016 7.751 5.017v0zM28 23.5c0 4.694-3.806 8.5-8.5 8.5-3.113 0-6.398-1.453-8.659-5.572-3.264-5.946-7.437-9.845-5.45-11.832 1.422-1.422 3.654-0.058 5.609 1.771v0-8.858c0-1.393 1.119-2.508 2.5-2.508 1.39 0 2.5 1.123 2.5 2.508v4.99c0.418-0.313 0.937-0.498 1.5-0.498 1.083 0 1.995 0.677 2.346 1.628 0.441-0.39 1.020-0.628 1.654-0.628 1.39 0 2.5 1.118 2.5 2.498v0.013c0.418-0.313 0.937-0.497 1.5-0.497 1.39 0 2.5 1.119 2.5 2.5v5.986z"></path>
    </symbol>
    <symbol id="icon-document-add" viewBox="0 0 32 32">
      <path d="M21 25v-3h1v3h3v1h-3v3h-1v-3h-3v-1h3zM17.257 29v0 0c1.009 1.221 2.535 2 4.243 2 3.038 0 5.5-2.462 5.5-5.5 0-2.137-1.219-3.99-3-4.9v-11.6l-6-7h-10.997c-1.106 0-2.003 0.898-2.003 2.007v22.985c0 1.109 0.891 2.007 1.997 2.007h10.26zM16.6 28h-9.6c-0.545 0-1-0.446-1-0.995v-23.009c0-0.54 0.446-0.995 0.996-0.995h10.004v4.994c0 1.119 0.895 2.006 1.998 2.006h4.002v10.207c-0.477-0.135-0.98-0.207-1.5-0.207-3.038 0-5.5 2.462-5.5 5.5 0 0.9 0.216 1.75 0.6 2.5v0 0zM18 3.5l4.7 5.5h-3.703c-0.546 0-0.997-0.452-0.997-1.009v-4.491zM21.5 30v0c-2.485 0-4.5-2.015-4.5-4.5s2.015-4.5 4.5-4.5c2.485 0 4.5 2.015 4.5 4.5s-2.015 4.5-4.5 4.5z"></path>
    </symbol>
    <symbol id="icon-refresh" viewBox="0 0 32 32">
      <path d="M26.631 4h4.869c0.276 0 0.5-0.224 0.5-0.5s-0.224-0.5-0.5-0.5h-6c-0.276 0-0.5 0.224-0.5 0.5v6c0 0.276 0.224 0.5 0.5 0.5s0.5-0.224 0.5-0.5v-4.717l0.611 0.611c2.833 2.833 4.394 6.6 4.394 10.606s-1.561 7.773-4.394 10.606c-4.205 4.206-10.504 5.532-16.051 3.375-0.257-0.102-0.547 0.027-0.647 0.284-0.1 0.258 0.027 0.548 0.285 0.647 1.884 0.732 3.848 1.088 5.797 1.088 4.17 0 8.266-1.63 11.323-4.688 3.022-3.021 4.687-7.040 4.687-11.313s-1.665-8.291-4.687-11.312l-0.687-0.687zM6.5 22c-0.276 0-0.5 0.224-0.5 0.5v4.84l-0.713-0.713c-2.833-2.833-4.394-6.6-4.394-10.606s1.561-7.774 4.394-10.607c4.135-4.136 10.351-5.495 15.836-3.456 0.256 0.096 0.546-0.035 0.643-0.295 0.096-0.259-0.036-0.547-0.295-0.643-5.849-2.172-12.48-0.725-16.891 3.687-3.022 3.021-4.687 7.040-4.687 11.313s1.665 8.292 4.687 11.313l0.666 0.667h-4.746c-0.276 0-0.5 0.224-0.5 0.5s0.224 0.5 0.5 0.5h5.856c0.040 0.010 0.376-0.025 0.474-0.123 0.004-0.004 0.005-0.009 0.009-0.013 0.098-0.092 0.161-0.219 0.161-0.364v-6c0-0.276-0.224-0.5-0.5-0.5z"></path>
    </symbol>
    <symbol id="icon-wallet-2" viewBox="0 0 20 20">
      <path d="M0 4c0-1.1 0.9-2 2-2h15c0.552 0 1 0.448 1 1v0 1h-16v1h17c0.552 0 1 0.448 1 1v0 10c0 1.105-0.895 2-2 2v0h-16c-1.105 0-2-0.895-2-2v0-12zM16.5 13c0.828 0 1.5-0.672 1.5-1.5s-0.672-1.5-1.5-1.5v0c-0.828 0-1.5 0.672-1.5 1.5s0.672 1.5 1.5 1.5v0z"></path>
    </symbol>
    <symbol id="icon-question" viewBox="0 0 32 32">
      <path d="M14 22h4v4h-4zM22 8c1.105 0 2 0.895 2 2v6l-6 4h-4v-2l6-4v-2h-10v-4h12zM16 3c-3.472 0-6.737 1.352-9.192 3.808s-3.808 5.72-3.808 9.192c0 3.472 1.352 6.737 3.808 9.192s5.72 3.808 9.192 3.808c3.472 0 6.737-1.352 9.192-3.808s3.808-5.72 3.808-9.192c0-3.472-1.352-6.737-3.808-9.192s-5.72-3.808-9.192-3.808zM16 0v0c8.837 0 16 7.163 16 16s-7.163 16-16 16c-8.837 0-16-7.163-16-16s7.163-16 16-16z"></path>
    </symbol>
  </defs>
</svg>
